<?xml version="1.0" encoding="UTF-8" standalone="no"?>
<!-- Created with Inkscape (http://www.inkscape.org/) -->

<svg
   width="500"
   height="500"
   viewBox="0 0 132.29166 132.29167"
   version="1.1"
   id="svg5"
   xmlns="http://www.w3.org/2000/svg"
   xmlns:svg="http://www.w3.org/2000/svg">
  <defs
     id="defs2" />
  <g
     id="layer1"
     transform="translate(386.68679,261.36008)">
    <path
       style="stroke:none;stroke-width:0.282222;stroke-opacity:1;fill:#ffffff;fill-opacity:1"
       d="m -350.85355,-257.71708 c -7.59601,1.7038 -15.4099,6.39786 -22.57778,9.44637 -2.48251,1.05579 -6.56519,1.97465 -7.90222,4.52665 -1.16442,2.2225 0.1263,4.40904 1.00999,6.48002 1.88143,4.40944 4.39076,16.39288 10.56112,15.46211 2.29718,-0.34657 4.62816,-1.83783 6.77333,-2.70539 5.49177,-2.22137 10.92031,-4.62392 16.36889,-6.94887 2.48582,-1.06087 6.41266,-1.95778 7.55566,-4.67925 0.88589,-2.10969 -0.4112,-4.29451 -1.22795,-6.2086 -1.84066,-4.31374 -3.30059,-9.24086 -5.7294,-13.25316 -1.03321,-1.70691 -2.86709,-2.5606 -4.83164,-2.11988 m 0.53481,4.64667 c 2.82109,0.48884 1.74837,5.23432 -1.32136,4.68035 -2.73474,-0.49352 -1.64028,-5.19354 1.32136,-4.68035 m -5.92667,2.53696 c 2.86315,0.53628 1.69475,5.10881 -1.32136,4.66073 -2.69127,-0.39983 -1.69503,-5.22566 1.32136,-4.66073 m -5.92666,2.54 c 2.86314,0.53628 1.69474,5.10881 -1.32137,4.66073 -2.69127,-0.39983 -1.69502,-5.22566 1.32137,-4.66073 m 14.39333,0.84971 c 2.77791,0.48133 1.68571,5.10554 -1.32136,4.65768 -2.71131,-0.40383 -1.66399,-5.17499 1.32136,-4.65768 m -20.31997,1.67609 c 2.99068,0.64211 1.47289,5.6865 -1.55267,4.61727 -2.54596,-0.89973 -1.19555,-5.20725 1.55267,-4.61727 m 14.3933,0.86086 c 2.7957,0.52367 1.64564,5.10151 -1.32136,4.66073 -2.69127,-0.39982 -1.69503,-5.22565 1.32136,-4.66073 m -19.72592,1.41608 c 0.31211,0.75063 0.73669,1.48235 0.98451,2.25668 1.60291,5.00829 -8.81519,0.85403 -2.95919,-1.72599 0.64564,-0.28442 1.28293,-0.427 1.97468,-0.53069 m 93.13333,0.15048 c -4.63042,1.01355 -6.19901,10.36343 -7.67418,14.24285 -1.56831,4.12384 -3.02373,8.28972 -4.58103,12.41778 -0.78317,2.07659 -2.14122,4.48762 -1.79522,6.77333 0.32371,2.14038 2.04809,3.16061 3.89043,3.89354 3.90765,1.55448 7.88501,2.9972 11.85334,4.38771 1.89766,0.6652 3.85402,1.67838 5.92666,1.20311 2.07857,-0.47695 2.90859,-2.3114 3.57886,-4.12213 1.25561,-3.39203 2.53125,-6.77785 3.81311,-10.16 1.56351,-4.12496 3.01272,-8.29451 4.58103,-12.41778 0.77188,-2.0289 2.12824,-4.24434 1.7955,-6.49111 -0.36689,-2.47932 -2.36305,-3.38272 -4.45516,-4.17915 -3.84613,-1.46405 -7.71539,-2.86421 -11.57111,-4.30171 -1.64959,-0.61502 -3.5577,-1.64146 -5.36223,-1.24644 m -79.33407,0.97344 c 2.82645,0.5294 1.6112,5.0226 -1.32137,4.65373 -2.66389,-0.33499 -1.72212,-5.22376 1.32137,-4.65373 m 14.39248,0.84667 c 2.77002,0.5229 1.64141,5.09033 -1.34309,4.66079 -2.72711,-0.39257 -1.66511,-5.22868 1.34309,-4.66079 m -20.31915,1.67914 c 2.91225,0.62523 1.44272,5.66671 -1.55363,4.61712 -2.58854,-0.90649 -1.18449,-5.20499 1.55363,-4.61712 m 85.86272,0.2008 c 1.83812,-0.67567 5.55639,1.52129 7.30025,2.16617 2.30462,0.85231 8.21012,1.97329 9.64183,3.97933 0.86389,1.20989 -0.66689,3.76654 -1.12098,4.96175 -1.74668,4.59683 -3.4307,9.22133 -5.1483,13.82889 l -2.97067,7.90222 c -0.33133,0.88646 -0.56755,2.55185 -1.59427,2.90773 -1.81159,0.62851 -5.55922,-1.61939 -7.27428,-2.25326 l -7.05556,-2.64414 c -0.84441,-0.31496 -2.33256,-0.6079 -2.78807,-1.47546 -0.63133,-1.20226 0.78571,-3.56108 1.19154,-4.71932 1.59428,-4.54885 3.40078,-9.02715 5.07323,-13.54666 l 3.02853,-8.18445 c 0.34939,-0.93669 0.66209,-2.53503 1.71675,-2.9228 m -71.47023,0.66006 c 1.34422,0.25377 2.17678,2.98721 1.06934,3.85363 -2.76522,2.16323 -7.39846,3.24161 -10.63442,4.618 -0.97536,0.41487 -2.75054,1.59315 -3.84104,1.2113 -1.21779,-0.42644 -1.84461,-2.90463 -0.86586,-3.76005 2.58911,-2.26285 7.47578,-3.3226 10.63357,-4.67021 0.97903,-0.41769 2.54028,-1.45999 3.63841,-1.25267 m -20.31913,1.67911 c 2.92958,0.63274 1.40713,5.64162 -1.55355,4.61715 -2.58715,-0.89549 -1.21355,-5.2149 1.55355,-4.61715 m 92.94111,1.69898 c -2.27556,0.64149 -1.0033,4.27623 1.28722,3.48572 2.11271,-0.72898 0.91609,-4.10689 -1.28722,-3.48572 m 4.815,2.00914 c -2.17537,1.19972 -0.23933,4.44528 1.75711,3.28986 1.98007,-1.1461 0.26416,-4.40464 -1.75711,-3.28986 m -95.48092,2.15533 c 2.83639,0.11458 2.21212,5.11415 -1.05658,4.73032 -2.64058,-0.30988 -1.86278,-4.84829 1.05658,-4.73032 m 88.69347,0.90847 c -2.1113,0.66266 -0.94121,4.23475 1.31008,3.49278 2.14178,-0.70583 0.92343,-4.1941 -1.31008,-3.49278 m 4.84547,2.01535 c -1.9843,1.16191 -0.23988,4.39589 1.74611,3.29071 1.97641,-1.1001 0.25795,-4.46391 -1.74611,-3.29071 m 6.17531,0.56444 c -1.07273,0.5986 -1.42184,2.58572 -1.82513,3.6497 -1.26887,3.34744 -3.5814,7.45547 -3.99937,11.00243 -0.15494,1.31714 1.39982,2.31056 2.58205,1.67838 1.16304,-0.62174 1.45231,-2.52335 1.87339,-3.6497 1.26323,-3.37791 3.33304,-7.17013 3.92543,-10.72416 0.21815,-1.31064 -1.26746,-2.67575 -2.55637,-1.95665 m -12.99633,2.55496 c -2.11046,1.06229 -0.56163,4.3942 1.56633,3.31837 2.07461,-1.04874 0.47413,-4.34537 -1.56633,-3.31837 m 4.8751,1.95354 c -2.05091,1.33153 0.1953,4.55394 1.97302,3.17783 1.76868,-1.36878 -0.12164,-4.37981 -1.97302,-3.17783 m -6.8357,3.11235 c -2.12852,1.18082 -0.23312,4.55563 1.77884,3.34744 1.9575,-1.17546 0.22494,-4.45939 -1.77884,-3.34744 m 5.06504,1.97471 c -2.00716,1.09135 -0.43886,4.21442 1.56633,3.30736 2.17057,-0.98157 0.59577,-4.48338 -1.56633,-3.30736 m -7.0008,3.10529 c -1.96653,1.16247 -0.25542,4.47887 1.77884,3.34659 2.09691,-1.16699 0.1857,-4.50793 -1.77884,-3.34659 m 5.04048,1.97471 c -1.99785,1.13594 -0.20545,4.26551 1.77857,3.26503 2.02889,-1.02334 0.25005,-4.41876 -1.77857,-3.26503 m -77.1254,24.68484 c -2.55129,0.60762 -4.3657,3.59833 -5.94924,5.49374 -4.10913,4.91743 -8.30801,9.75896 -12.41784,14.67555 -1.65213,1.9764 -4.48437,4.29006 -4.56935,7.05556 -0.0673,2.1875 1.35718,3.55007 2.89865,4.87426 3.18248,2.7336 6.41331,5.41104 9.59556,8.14465 1.80453,1.55024 3.63897,3.25543 6.20889,2.6351 2.56314,-0.61891 4.27369,-3.61329 5.88997,-5.49401 4.24971,-4.9451 8.44889,-9.94608 12.61985,-14.95778 1.67048,-2.00688 4.35102,-4.22318 4.32675,-7.05556 -0.0181,-2.09098 -1.61544,-3.46512 -3.0813,-4.72101 -3.17105,-2.71752 -6.41689,-5.3467 -9.59527,-8.05575 -1.69701,-1.44639 -3.50182,-3.17218 -5.92667,-2.59475 m 0.58984,3.70473 c 1.35608,-0.41713 2.74066,1.22513 3.64349,1.99446 2.72599,2.32326 5.44153,4.6626 8.18445,6.96609 0.8684,0.72898 2.5067,1.67386 2.41272,2.98958 -0.1318,1.84009 -2.80868,4.01772 -3.9435,5.3611 -3.73492,4.42016 -7.43429,8.87589 -11.20591,13.26444 -1.1018,1.28185 -3.08074,4.71678 -4.80907,5.05573 -1.22174,0.23932 -2.5098,-1.32757 -3.33869,-2.02071 -2.74009,-2.29136 -5.44099,-4.62901 -8.18444,-6.91642 -0.88192,-0.73519 -2.77647,-1.82372 -2.61273,-3.17839 0.22767,-1.88327 3.1036,-4.24575 4.30606,-5.64021 3.69979,-4.29062 7.27372,-8.68765 10.96998,-12.98222 1.14723,-1.33322 2.84762,-4.36118 4.57764,-4.89345 m -0.57742,4.34932 c -2.23407,1.04338 -0.67903,4.3815 1.37216,3.35309 2.12965,-1.06765 0.70245,-4.32224 -1.37216,-3.35309 m 4.22628,3.40473 c -2.19118,0.88985 -1.0414,4.32195 1.09699,3.5196 2.19597,-0.82381 1.00613,-4.37332 -1.09699,-3.5196 m -7.33891,0.53199 c -2.30265,0.41713 -1.68995,4.14359 0.55598,3.71038 2.27273,-0.43829 1.72663,-4.12383 -0.55598,-3.71038 m 3.69429,3.67623 c -2.078,1.05636 -0.69004,4.28413 1.36906,3.34998 2.25213,-1.02137 0.66689,-4.38517 -1.36906,-3.34998 m -7.56779,0.5746 c -2.17399,1.07188 -0.67987,4.53362 1.3239,3.44453 2.12852,-1.15712 0.72052,-4.45291 -1.3239,-3.44453 m 13.47583,1.91714 c -1.20453,0.31693 -2.19372,1.95721 -2.94894,2.85722 -2.29701,2.73614 -5.13362,5.44717 -7.0375,8.46666 -0.75522,1.19747 -0.21336,3.14142 1.50481,2.97293 1.25505,-0.12305 2.21178,-1.82202 2.94584,-2.6907 2.34978,-2.78074 5.50361,-5.58095 7.30165,-8.74889 0.71939,-1.26718 -0.005,-3.32035 -1.76586,-2.85722 m 55.58677,1.0874 c -1.78788,0.055 -3.12392,1.04733 -3.91301,2.61677 -2.12344,4.22317 -3.59975,8.89225 -5.40343,13.26416 -0.84272,2.04272 -1.91403,4.02392 -0.86614,6.20776 1.20509,2.51206 4.96147,3.33135 7.36035,4.2909 5.65687,2.26286 11.2903,4.58978 16.93334,6.88707 2.2558,0.91835 5.11725,2.75082 7.62,2.59137 2.75759,-0.17555 3.86136,-2.45223 4.70775,-4.7371 1.44356,-3.89665 3.11855,-7.73854 4.72524,-11.57111 0.78627,-1.87537 1.77574,-3.95055 0.6875,-5.92554 -1.3383,-2.42965 -4.92732,-3.13605 -7.29827,-4.15516 -5.3165,-2.28543 -10.76311,-4.26099 -16.08667,-6.52808 -2.50331,-1.06624 -5.6896,-3.02655 -8.46666,-2.94104 m -64.58063,0.35052 c -2.19795,0.48994 -1.79352,4.09025 0.51506,3.71038 2.43219,-0.40019 1.74554,-4.21443 -0.51506,-3.71038 m -7.93806,0.87519 c -2.22781,1.04056 -0.66046,4.35328 1.34642,3.34603 2.07806,-1.04281 0.74061,-4.32082 -1.34642,-3.34603 m 4.22627,3.39062 c -2.1065,0.90988 -1.12437,4.1958 1.04169,3.45892 2.25354,-0.7668 1.03942,-4.35752 -1.04169,-3.45892 m 68.88734,0.20518 c 2.73586,-0.6875 4.25478,3.44734 1.60274,4.46786 -2.87838,1.10744 -4.47689,-3.74538 -1.60274,-4.46786 m -76.50725,0.38043 c -2.23478,0.86247 -1.00943,4.42101 1.11102,3.54217 2.16803,-0.89831 0.9993,-4.35638 -1.11102,-3.54217 m 82.23241,2.11159 c 2.79993,-1.15429 4.70465,3.43831 1.80425,4.4196 -2.69974,0.91355 -4.39985,-3.34942 -1.80425,-4.4196 m -78.27433,1.52513 c -2.16984,1.05918 -0.61649,4.26014 1.37216,3.34913 2.2242,-1.01882 0.71064,-4.3657 -1.37216,-3.34913 m 84.43242,0.78062 c 2.9337,-0.78034 4.34735,3.88282 1.57254,4.62111 -2.93342,0.78034 -4.34735,-3.88281 -1.57254,-4.62111 m -12.47817,5.97943 -3.66889,-1.41112 c 0.23114,-0.9985 0.51505,-2.82278 1.5223,-3.34941 0.97424,-0.50941 3.28084,0.55626 3.3751,1.68571 0.0872,1.04056 -0.73096,2.21912 -1.22851,3.07482 m 18.40484,-3.46908 c 2.76549,-0.89831 4.47068,3.31696 1.80396,4.4165 -2.81601,1.16078 -4.60558,-3.5069 -1.80396,-4.4165 m -14.39023,1.12578 c 2.80896,-0.96886 4.45431,3.34885 1.80086,4.41848 -2.79598,1.12747 -4.57511,-3.46174 -1.80086,-4.41848 m 20.5692,1.24856 c 3.05026,-0.5303 3.95252,4.22825 1.32024,4.62167 -3.00454,0.44901 -4.0609,-4.14528 -1.32024,-4.62167 m -14.39333,1.08966 c 2.86145,-0.54018 4.07952,3.88732 1.35015,4.57341 -3.04998,0.76651 -4.04227,-4.06513 -1.35015,-4.57341 m -14.39334,1.12888 c 2.86569,-0.54073 4.07924,3.94519 1.35015,4.53983 -3.03896,0.66209 -4.0592,-4.02844 -1.35015,-4.53983 m 20.32,1.36342 c 2.75026,-0.69116 4.16984,3.46004 1.59936,4.46786 -2.86682,1.12409 -4.47577,-3.74481 -1.59936,-4.46786 m -14.39333,1.12889 c 1.06031,-0.2667 2.67236,0.6858 3.63841,1.06906 3.17359,1.25927 8.33713,2.39183 10.91269,4.62646 0.97733,0.8478 0.0968,3.34772 -1.09531,3.6514 -1.15739,0.29492 -2.84734,-0.74564 -3.89071,-1.16643 -3.15638,-1.27254 -7.9948,-2.34724 -10.63357,-4.47999 -1.07499,-0.86868 -0.18401,-3.38526 1.06849,-3.7005 m 20.11736,1.36426 c 2.76183,-1.10349 4.50512,3.48629 1.80199,4.41847 -2.76831,0.95476 -4.49947,-3.34095 -1.80199,-4.41847 m -2.3303,5.94388 c 2.70143,-0.84723 4.42834,3.33728 1.82005,4.41537 -2.76409,1.14272 -4.72694,-3.50379 -1.82005,-4.41537"
       id="path347" />
  </g>
</svg>
